<?xml version="1.0" encoding="UTF-8" standalone="no"?>
<!-- Created with Inkscape (http://www.inkscape.org/) -->

<svg
   width="1280mm"
   height="2100mm"
   viewBox="0 0 1280 2100"
   version="1.1"
   id="svg5"
   inkscape:version="1.2.2 (b0a8486541, 2022-12-01)"
   sodipodi:docname="Landing page.svg"
   xmlns:inkscape="http://www.inkscape.org/namespaces/inkscape"
   xmlns:sodipodi="http://sodipodi.sourceforge.net/DTD/sodipodi-0.dtd"
   xmlns="http://www.w3.org/2000/svg"
   xmlns:svg="http://www.w3.org/2000/svg">
  <sodipodi:namedview
     id="namedview7"
     pagecolor="#ffffff"
     bordercolor="#000000"
     borderopacity="0.25"
     inkscape:showpageshadow="2"
     inkscape:pageopacity="0.0"
     inkscape:pagecheckerboard="0"
     inkscape:deskcolor="#d1d1d1"
     inkscape:document-units="mm"
     showgrid="false"
     inkscape:lockguides="false"
     inkscape:zoom="0.078004469"
     inkscape:cx="1448.6349"
     inkscape:cy="3506.2094"
     inkscape:window-width="1920"
     inkscape:window-height="1014"
     inkscape:window-x="0"
     inkscape:window-y="0"
     inkscape:window-maximized="1"
     inkscape:current-layer="layer1" />
  <defs
     id="defs2" />
  <g
     inkscape:label="Camada 1"
     inkscape:groupmode="layer"
     id="layer1">
    <path
       id="path1963"
       style="fill:#b3b3b3;fill-opacity:1;stroke:none;stroke-width:1.24288;stroke-dasharray:none;stroke-opacity:1"
       d="m 0,1020.1017 h 1280 v 840.7027 H 0 Z" />
    <path
       id="rect111"
       style="fill:#b3b3b3;fill-opacity:1;stroke:none;stroke-width:0.873075;stroke-dasharray:none;stroke-opacity:1"
       d="M 0,0.71604693 H 1280 V 415.55626 H 0 Z" />
    <text
       xml:space="preserve"
       style="font-size:24.6944px;fill:#000000;fill-opacity:1;stroke:none;stroke-width:1;stroke-dasharray:none;stroke-opacity:1"
       x="919.85168"
       y="51.282135"
       id="text2707"><tspan
         sodipodi:role="line"
         id="tspan2705"
         style="font-size:24.6944px;stroke-width:1"
         x="919.85168"
         y="51.282135">Inicio      Beneficios       FAQ</tspan></text>
    <text
       xml:space="preserve"
       style="font-size:24.6944px;fill:#000000;fill-opacity:1;stroke:none;stroke-width:1;stroke-dasharray:none;stroke-opacity:1"
       x="50.146862"
       y="52.763798"
       id="text2765"><tspan
         sodipodi:role="line"
         id="tspan2763"
         style="font-size:24.6944px;stroke-width:1"
         x="50.146862"
         y="52.763798">LOGOMARCA</tspan></text>
    <text
       xml:space="preserve"
       style="font-size:34.5722px;fill:#000000;fill-opacity:1;stroke:none;stroke-width:1;stroke-dasharray:none;stroke-opacity:1"
       x="50.146858"
       y="175.81551"
       id="text2769"><tspan
         sodipodi:role="line"
         id="tspan2767"
         style="font-style:normal;font-variant:normal;font-weight:bold;font-stretch:normal;font-size:34.5722px;font-family:sans-serif;-inkscape-font-specification:'sans-serif, Bold';font-variant-ligatures:normal;font-variant-caps:normal;font-variant-numeric:normal;font-variant-east-asian:normal;stroke-width:1"
         x="50.146858"
         y="175.81551">TITULO</tspan></text>
    <g
       id="g486">
      <path
         id="rect2771"
         d="m 50.464359,224.73035 h 28.969733 v 10.99508 H 50.464359 Z"
         style="stroke-width:0.376805" />
      <path
         id="path2774"
         d="M 99.322558,224.73035 H 204.04236 v 10.99508 H 99.322558 Z"
         style="stroke-width:0.716405" />
      <path
         id="path2776"
         d="m 216.62233,224.73035 h 33.84531 v 10.99508 h -33.84531 z"
         style="stroke-width:0.40728" />
      <path
         id="path2778"
         d="m 263.07116,224.73035 h 61.50734 v 10.99508 h -61.50734 z"
         style="stroke-width:0.549044" />
      <path
         id="path2780"
         d="m 50.464359,257.36739 h 48.858199 v 10.99508 H 50.464359 Z"
         style="stroke-width:0.489343" />
      <path
         id="path2782"
         d="m 158.28739,257.36739 h -46.41988 v 10.99508 h 46.41988 z"
         style="stroke-width:0.476976" />
      <path
         id="path2784"
         d="m 170.83034,257.36739 h 79.6373 v 10.99508 h -79.6373 z"
         style="stroke-width:0.624744" />
      <path
         id="path2786"
         d="m 274.02385,257.36739 h 50.55465 v 10.99508 h -50.55465 z"
         style="stroke-width:0.497765" />
      <path
         id="path2788"
         d="m 50.464359,284.32277 h 14.484866 v 10.99508 H 50.464359 Z"
         style="stroke-width:0.266442" />
      <path
         id="path2790"
         d="M 131.69002,284.32277 H 78.057852 v 10.99508 h 53.632168 z"
         style="stroke-width:0.512692" />
      <path
         id="path2792"
         d="m 147.32328,284.32277 h 44.43526 v 10.99508 h -44.43526 z"
         style="stroke-width:0.466668" />
      <path
         id="path2794"
         d="M 210.64899,284.32277 H 324.5785 v 10.99508 H 210.64899 Z"
         style="stroke-width:0.747243" />
    </g>
    <g
       id="g298"
       transform="translate(1132.6114,395.87509)">
      <g
         id="g3558"
         transform="translate(-284.96204,1005.6232)">
        <path
           id="rect2835"
           d="M 59.385257,343.91519 H 324.13182 c 12.01287,0 21.68388,10.44213 21.68388,23.41285 v 19.43691 c 0,12.97072 -9.67101,23.41285 -21.68388,23.41285 H 59.385257 c -12.012866,0 -21.683874,-10.44213 -21.683874,-23.41285 v -19.43691 c 0,-12.97072 9.671008,-23.41285 21.683874,-23.41285 z"
           style="fill:#666666;stroke-width:0.962368" />
        <text
           xml:space="preserve"
           style="font-size:24.6944px;fill:#000000;fill-opacity:1;stroke:none;stroke-width:1;stroke-dasharray:none;stroke-opacity:1"
           x="84.140358"
           y="384.47952"
           id="text2890"><tspan
             sodipodi:role="line"
             id="tspan2888"
             style="font-size:24.6944px;stroke-width:1"
             x="84.140358"
             y="384.47952">CTA (Call to action)</tspan></text>
      </g>
    </g>
    <path
       id="path17047"
       style="fill:#f2f2f2;fill-opacity:1;stroke:none;stroke-width:1.0672;stroke-dasharray:none;stroke-opacity:1"
       d="M 0,415.55626 H 1280 V 1035.3776 H 0 Z" />
    <g
       id="g9264"
       transform="translate(297.54325,14.136971)">
      <rect
         style="fill:none;fill-opacity:1;stroke:#000000;stroke-width:5;stroke-dasharray:none;stroke-opacity:1"
         id="rect5302"
         width="213.12567"
         height="191.11844"
         x="570.62347"
         y="152.79675"
         ry="3.0517579e-06" />
      <ellipse
         style="fill:none;fill-opacity:1;stroke:#000000;stroke-width:5;stroke-dasharray:none;stroke-opacity:1"
         id="path6111"
         cx="663.65924"
         cy="220.11247"
         rx="27.579336"
         ry="25.743504" />
      <path
         style="fill:none;fill-opacity:1;stroke:#000000;stroke-width:4.99999;stroke-dasharray:none;stroke-opacity:1"
         d="m 570.62345,343.91518 69.37653,-66.29871 25.34267,31.9809 67.50018,-68.13625 50.90631,63.7099"
         id="path9230" />
    </g>
    <text
       xml:space="preserve"
       style="font-style:normal;font-variant:normal;font-weight:bold;font-stretch:normal;font-size:34.5723px;font-family:sans-serif;-inkscape-font-specification:'sans-serif, Bold';font-variant-ligatures:normal;font-variant-caps:normal;font-variant-numeric:normal;font-variant-east-asian:normal;fill:none;fill-opacity:1;stroke:#000000;stroke-width:4.99999;stroke-dasharray:none;stroke-opacity:1"
       x="1166.0525"
       y="-83.525093"
       id="text10084"><tspan
         sodipodi:role="line"
         id="tspan10082"
         style="stroke-width:5"
         x="1166.0525"
         y="-83.525093" /></text>
    <text
       xml:space="preserve"
       style="font-size:33.5139px;fill:#000000;fill-opacity:1;stroke:none;stroke-width:1;stroke-dasharray:none;stroke-opacity:1"
       x="48.922718"
       y="511.6044"
       id="text335"><tspan
         sodipodi:role="line"
         id="tspan333"
         style="font-style:normal;font-variant:normal;font-weight:bold;font-stretch:normal;font-size:33.5139px;font-family:sans-serif;-inkscape-font-specification:'sans-serif, Bold';font-variant-ligatures:normal;font-variant-caps:normal;font-variant-numeric:normal;font-variant-east-asian:normal;stroke-width:1"
         x="48.922718"
         y="511.6044">SUBTITULO</tspan></text>
    <g
       id="g894"
       transform="translate(3.2310059e-6,-80.194645)">
      <path
         id="path488"
         d="m 50.464356,635.40688 h 47.253737 v 10.99508 H 50.464356 Z"
         style="stroke-width:0.481241" />
      <path
         id="path490"
         d="m 130.159,635.40688 h 170.81282 v 10.99508 H 130.159 Z"
         style="stroke-width:0.914965" />
      <path
         id="path492"
         d="m 321.49153,635.40688 h 55.2065 v 10.99508 h -55.2065 z"
         style="stroke-width:0.520162" />
      <path
         id="path494"
         d="m 397.25615,635.40688 h 100.32718 v 10.99508 H 397.25615 Z"
         style="stroke-width:0.701218" />
      <path
         id="path496"
         d="M 50.464356,668.04392 H 130.159 V 679.039 H 50.464356 Z"
         style="stroke-width:0.62497" />
      <path
         id="path498"
         d="m 226.33899,668.04392 h -75.7174 V 679.039 h 75.7174 z"
         style="stroke-width:0.609175" />
      <path
         id="path500"
         d="M 246.79832,668.04392 H 376.69803 V 679.039 H 246.79832 Z"
         style="stroke-width:0.797899" />
      <path
         id="path502"
         d="m 415.12154,668.04392 h 82.46179 V 679.039 h -82.46179 z"
         style="stroke-width:0.635726" />
      <path
         id="path504"
         d="m 50.464356,694.9993 h 23.626868 v 10.99508 H 50.464356 Z"
         style="stroke-width:0.340289" />
      <path
         id="path506"
         d="M 182.95491,694.9993 H 95.473251 v 10.99508 h 87.481659 z"
         style="stroke-width:0.65479" />
      <path
         id="path508"
         d="m 208.45497,694.9993 h 72.4802 v 10.99508 h -72.4802 z"
         style="stroke-width:0.59601" />
      <path
         id="path510"
         d="m 311.74817,694.9993 h 185.83516 v 10.99508 H 311.74817 Z"
         style="stroke-width:0.95435" />
    </g>
    <path
       id="path17051"
       style="fill:#f2f2f2;fill-opacity:1;stroke:none;stroke-width:0.672415;stroke-dasharray:none;stroke-opacity:1"
       d="M 7.8366364e-6,1853.9347 H 1280 V 2100 H 7.8366364e-6 Z" />
    <g
       id="g667"
       transform="matrix(1.5268554,0,0,1.5268554,-116.69636,290.78446)">
      <rect
         style="fill:none;fill-opacity:1;stroke:#000000;stroke-width:5;stroke-dasharray:none;stroke-opacity:1"
         id="rect661"
         width="213.12567"
         height="191.11844"
         x="570.62347"
         y="152.79675"
         ry="3.0517579e-06" />
      <ellipse
         style="fill:none;fill-opacity:1;stroke:#000000;stroke-width:5;stroke-dasharray:none;stroke-opacity:1"
         id="ellipse663"
         cx="663.65924"
         cy="220.11247"
         rx="27.579336"
         ry="25.743504" />
      <path
         style="fill:none;fill-opacity:1;stroke:#000000;stroke-width:4.99999;stroke-dasharray:none;stroke-opacity:1"
         d="m 570.62345,343.91518 69.37653,-66.29871 25.34267,31.9809 67.50018,-68.13625 50.90631,63.7099"
         id="path665" />
    </g>
    <g
       id="g4048">
      <g
         id="g1150"
         transform="translate(3.2310059e-6,-80.194645)">
        <path
           id="path880"
           d="M 44.938975,951.76465 H 62.27779 v 10.99508 H 44.938975 Z"
           style="stroke-width:0.291511" />
        <path
           id="path962"
           d="m 71.846383,951.76465 h 42.172007 v 10.99508 H 71.846383 Z"
           style="stroke-width:0.454629" />
        <path
           id="path964"
           d="m 123.58698,951.76465 h 15.6271 v 10.99508 h -15.6271 z"
           style="stroke-width:0.276748" />
        <path
           id="path966"
           d="m 148.78267,951.76465 h 34.17224 v 10.99508 h -34.17224 z"
           style="stroke-width:0.409243" />
        <path
           id="path1037"
           d="m 44.938975,972.06846 h 13.045788 v 10.99508 H 44.938975 Z"
           style="stroke-width:0.25286" />
        <path
           id="path1039"
           d="M 65.184207,972.06846 H 96.91458 v 10.99508 H 65.184207 Z"
           style="stroke-width:0.394351" />
        <path
           id="path1041"
           d="m 104.11402,972.06846 h 11.75789 v 10.99508 h -11.75789 z"
           style="stroke-width:0.240055" />
        <path
           id="path1043"
           d="m 131.40053,972.06846 h 17.38214 v 10.99508 h -17.38214 z"
           style="stroke-width:0.291874" />
        <path
           id="path1045"
           d="m 157.24359,972.06846 h 25.71132 v 10.99508 h -25.71132 z"
           style="stroke-width:0.354982" />
        <path
           id="path1047"
           d="m 44.938975,994.60316 h 13.045788 v 10.99504 H 44.938975 Z"
           style="stroke-width:0.25286" />
        <path
           id="path1049"
           d="M 65.184207,994.60316 H 96.91458 v 10.99504 H 65.184207 Z"
           style="stroke-width:0.394351" />
        <path
           id="path1051"
           d="m 104.11402,994.60316 h 21.86199 v 10.99504 h -21.86199 z"
           style="stroke-width:0.327334" />
        <path
           id="path1053"
           d="m 136.70594,994.60316 h 12.07673 v 10.99504 h -12.07673 z"
           style="stroke-width:0.243287" />
        <path
           id="path1055"
           d="m 157.24359,994.60316 h 25.71132 v 10.99504 h -25.71132 z"
           style="stroke-width:0.354982" />
      </g>
      <g
         id="g728"
         transform="matrix(0.63273586,0,0,0.63273586,-314.53312,630.01946)">
        <rect
           style="fill:none;fill-opacity:1;stroke:#000000;stroke-width:5;stroke-dasharray:none;stroke-opacity:1"
           id="rect722"
           width="213.12567"
           height="191.11844"
           x="570.62347"
           y="152.79675"
           ry="3.0517579e-06" />
        <ellipse
           style="fill:none;fill-opacity:1;stroke:#000000;stroke-width:5;stroke-dasharray:none;stroke-opacity:1"
           id="ellipse724"
           cx="663.65924"
           cy="220.11247"
           rx="27.579336"
           ry="25.743504" />
        <path
           style="fill:none;fill-opacity:1;stroke:#000000;stroke-width:4.99999;stroke-dasharray:none;stroke-opacity:1"
           d="m 570.62345,343.91518 69.37653,-66.29871 25.34267,31.9809 67.50018,-68.13625 50.90631,63.7099"
           id="path726" />
      </g>
    </g>
    <g
       id="g1356"
       transform="translate(189.88404,-81.217592)">
      <g
         id="g1346">
        <path
           id="path1318"
           d="M 44.938975,951.76465 H 62.27779 v 10.99508 H 44.938975 Z"
           style="stroke-width:0.291511" />
        <path
           id="path1320"
           d="m 71.846383,951.76465 h 42.172007 v 10.99508 H 71.846383 Z"
           style="stroke-width:0.454629" />
        <path
           id="path1322"
           d="m 123.58698,951.76465 h 15.6271 v 10.99508 h -15.6271 z"
           style="stroke-width:0.276748" />
        <path
           id="path1324"
           d="m 148.78267,951.76465 h 34.17224 v 10.99508 h -34.17224 z"
           style="stroke-width:0.409243" />
        <path
           id="path1326"
           d="m 44.938975,972.06846 h 13.045788 v 10.99508 H 44.938975 Z"
           style="stroke-width:0.25286" />
        <path
           id="path1328"
           d="M 65.184207,972.06846 H 96.91458 v 10.99508 H 65.184207 Z"
           style="stroke-width:0.394351" />
        <path
           id="path1330"
           d="m 104.11402,972.06846 h 11.75789 v 10.99508 h -11.75789 z"
           style="stroke-width:0.240055" />
        <path
           id="path1332"
           d="m 131.40053,972.06846 h 17.38214 v 10.99508 h -17.38214 z"
           style="stroke-width:0.291874" />
        <path
           id="path1334"
           d="m 157.24359,972.06846 h 25.71132 v 10.99508 h -25.71132 z"
           style="stroke-width:0.354982" />
        <path
           id="path1336"
           d="m 44.938975,994.60316 h 13.045788 v 10.99504 H 44.938975 Z"
           style="stroke-width:0.25286" />
        <path
           id="path1338"
           d="M 65.184207,994.60316 H 96.91458 v 10.99504 H 65.184207 Z"
           style="stroke-width:0.394351" />
        <path
           id="path1340"
           d="m 104.11402,994.60316 h 21.86199 v 10.99504 h -21.86199 z"
           style="stroke-width:0.327334" />
        <path
           id="path1342"
           d="m 136.70594,994.60316 h 12.07673 v 10.99504 h -12.07673 z"
           style="stroke-width:0.243287" />
        <path
           id="path1344"
           d="m 157.24359,994.60316 h 25.71132 v 10.99504 h -25.71132 z"
           style="stroke-width:0.354982" />
      </g>
      <g
         id="g1354"
         transform="matrix(0.63273586,0,0,0.63273586,-314.53312,710.21411)">
        <rect
           style="fill:none;fill-opacity:1;stroke:#000000;stroke-width:5;stroke-dasharray:none;stroke-opacity:1"
           id="rect1348"
           width="213.12567"
           height="191.11844"
           x="570.62347"
           y="152.79675"
           ry="3.0517579e-06" />
        <ellipse
           style="fill:none;fill-opacity:1;stroke:#000000;stroke-width:5;stroke-dasharray:none;stroke-opacity:1"
           id="ellipse1350"
           cx="663.65924"
           cy="220.11247"
           rx="27.579336"
           ry="25.743504" />
        <path
           style="fill:none;fill-opacity:1;stroke:#000000;stroke-width:4.99999;stroke-dasharray:none;stroke-opacity:1"
           d="m 570.62345,343.91518 69.37653,-66.29871 25.34267,31.9809 67.50018,-68.13625 50.90631,63.7099"
           id="path1352" />
      </g>
    </g>
    <g
       id="g1396"
       transform="translate(388.22899,-82.426278)">
      <g
         id="g1386">
        <path
           id="path1358"
           d="M 44.938975,951.76465 H 62.27779 v 10.99508 H 44.938975 Z"
           style="stroke-width:0.291511" />
        <path
           id="path1360"
           d="m 71.846383,951.76465 h 42.172007 v 10.99508 H 71.846383 Z"
           style="stroke-width:0.454629" />
        <path
           id="path1362"
           d="m 123.58698,951.76465 h 15.6271 v 10.99508 h -15.6271 z"
           style="stroke-width:0.276748" />
        <path
           id="path1364"
           d="m 148.78267,951.76465 h 34.17224 v 10.99508 h -34.17224 z"
           style="stroke-width:0.409243" />
        <path
           id="path1366"
           d="m 44.938975,972.06846 h 13.045788 v 10.99508 H 44.938975 Z"
           style="stroke-width:0.25286" />
        <path
           id="path1368"
           d="M 65.184207,972.06846 H 96.91458 v 10.99508 H 65.184207 Z"
           style="stroke-width:0.394351" />
        <path
           id="path1370"
           d="m 104.11402,972.06846 h 11.75789 v 10.99508 h -11.75789 z"
           style="stroke-width:0.240055" />
        <path
           id="path1372"
           d="m 131.40053,972.06846 h 17.38214 v 10.99508 h -17.38214 z"
           style="stroke-width:0.291874" />
        <path
           id="path1374"
           d="m 157.24359,972.06846 h 25.71132 v 10.99508 h -25.71132 z"
           style="stroke-width:0.354982" />
        <path
           id="path1376"
           d="m 44.938975,994.60316 h 13.045788 v 10.99504 H 44.938975 Z"
           style="stroke-width:0.25286" />
        <path
           id="path1378"
           d="M 65.184207,994.60316 H 96.91458 v 10.99504 H 65.184207 Z"
           style="stroke-width:0.394351" />
        <path
           id="path1380"
           d="m 104.11402,994.60316 h 21.86199 v 10.99504 h -21.86199 z"
           style="stroke-width:0.327334" />
        <path
           id="path1382"
           d="m 136.70594,994.60316 h 12.07673 v 10.99504 h -12.07673 z"
           style="stroke-width:0.243287" />
        <path
           id="path1384"
           d="m 157.24359,994.60316 h 25.71132 v 10.99504 h -25.71132 z"
           style="stroke-width:0.354982" />
      </g>
      <g
         id="g1394"
         transform="matrix(0.63273586,0,0,0.63273586,-314.53312,710.21411)">
        <rect
           style="fill:none;fill-opacity:1;stroke:#000000;stroke-width:5;stroke-dasharray:none;stroke-opacity:1"
           id="rect1388"
           width="213.12567"
           height="191.11844"
           x="570.62347"
           y="152.79675"
           ry="3.0517579e-06" />
        <ellipse
           style="fill:none;fill-opacity:1;stroke:#000000;stroke-width:5;stroke-dasharray:none;stroke-opacity:1"
           id="ellipse1390"
           cx="663.65924"
           cy="220.11247"
           rx="27.579336"
           ry="25.743504" />
        <path
           style="fill:none;fill-opacity:1;stroke:#000000;stroke-width:4.99999;stroke-dasharray:none;stroke-opacity:1"
           d="m 570.62345,343.91518 69.37653,-66.29871 25.34267,31.9809 67.50018,-68.13625 50.90631,63.7099"
           id="path1392" />
      </g>
    </g>
    <text
       xml:space="preserve"
       style="font-size:33.5139px;fill:#000000;fill-opacity:1;stroke:none;stroke-width:1;stroke-dasharray:none;stroke-opacity:1"
       x="43.397339"
       y="1085.2775"
       id="text2081"><tspan
         sodipodi:role="line"
         id="tspan2079"
         style="font-style:normal;font-variant:normal;font-weight:bold;font-stretch:normal;font-size:33.5139px;font-family:sans-serif;-inkscape-font-specification:'sans-serif, Bold';font-variant-ligatures:normal;font-variant-caps:normal;font-variant-numeric:normal;font-variant-east-asian:normal;stroke-width:1"
         x="43.397339"
         y="1085.2775">SUBTITULO</tspan></text>
    <path
       id="path2121"
       d="m 43.490598,1120.9344 h 47.253737 v 10.995 H 43.490598 Z"
       style="stroke-width:0.481241" />
    <path
       id="path2123"
       d="m 123.18524,1120.9344 h 170.81282 v 10.995 H 123.18524 Z"
       style="stroke-width:0.914965" />
    <path
       id="path2125"
       d="m 314.51777,1120.9344 h 55.2065 v 10.995 h -55.2065 z"
       style="stroke-width:0.520162" />
    <path
       id="path2127"
       d="m 390.28239,1120.9344 h 133.20416 v 10.995 H 390.28239 Z"
       style="stroke-width:0.807984" />
    <path
       id="path2129"
       d="m 43.490598,1153.5714 h 79.694642 v 10.9951 H 43.490598 Z"
       style="stroke-width:0.62497" />
    <path
       id="path2131"
       d="m 219.36523,1153.5714 h -75.7174 v 10.9951 h 75.7174 z"
       style="stroke-width:0.609175" />
    <path
       id="path2133"
       d="m 239.82456,1153.5714 h 129.89971 v 10.9951 H 239.82456 Z"
       style="stroke-width:0.797899" />
    <path
       id="path2135"
       d="m 408.14778,1153.5714 h 82.46179 v 10.9951 h -82.46179 z"
       style="stroke-width:0.635726" />
    <g
       id="g4409"
       transform="translate(47.805989,26.222928)">
      <g
         id="g2417"
         transform="matrix(1.5268554,0,0,1.5268554,-825.37392,976.02579)">
        <rect
           style="fill:none;fill-opacity:1;stroke:#000000;stroke-width:5;stroke-dasharray:none;stroke-opacity:1"
           id="rect2411"
           width="213.12567"
           height="191.11844"
           x="570.62347"
           y="152.79675"
           ry="3.0517579e-06" />
        <ellipse
           style="fill:none;fill-opacity:1;stroke:#000000;stroke-width:5;stroke-dasharray:none;stroke-opacity:1"
           id="ellipse2413"
           cx="663.65924"
           cy="220.11247"
           rx="27.579336"
           ry="25.743504" />
        <path
           style="fill:none;fill-opacity:1;stroke:#000000;stroke-width:4.99999;stroke-dasharray:none;stroke-opacity:1"
           d="m 570.62345,343.91518 69.37653,-66.29871 25.34267,31.9809 67.50018,-68.13625 50.90631,63.7099"
           id="path2415" />
      </g>
      <g
         id="g4027"
         transform="matrix(2.4106023,0,0,1,-65.916696,579.21006)">
        <path
           id="path3999"
           d="M 44.938975,951.76465 H 62.27779 v 10.99508 H 44.938975 Z"
           style="stroke-width:0.291511" />
        <path
           id="path4001"
           d="m 71.846383,951.76465 h 42.172007 v 10.99508 H 71.846383 Z"
           style="stroke-width:0.454629" />
        <path
           id="path4003"
           d="m 123.58698,951.76465 h 15.6271 v 10.99508 h -15.6271 z"
           style="stroke-width:0.276748" />
        <path
           id="path4005"
           d="m 148.78267,951.76465 h 34.17224 v 10.99508 h -34.17224 z"
           style="stroke-width:0.409243" />
        <path
           id="path4007"
           d="m 44.938975,972.06846 h 13.045788 v 10.99508 H 44.938975 Z"
           style="stroke-width:0.25286" />
        <path
           id="path4009"
           d="M 65.184207,972.06846 H 96.91458 v 10.99508 H 65.184207 Z"
           style="stroke-width:0.394351" />
        <path
           id="path4011"
           d="m 104.11402,972.06846 h 11.75789 v 10.99508 h -11.75789 z"
           style="stroke-width:0.240055" />
        <path
           id="path4013"
           d="m 131.40053,972.06846 h 17.38214 v 10.99508 h -17.38214 z"
           style="stroke-width:0.291874" />
        <path
           id="path4015"
           d="m 157.24359,972.06846 h 25.71132 v 10.99508 h -25.71132 z"
           style="stroke-width:0.354982" />
        <path
           id="path4017"
           d="m 44.938975,994.60316 h 13.045788 v 10.99504 H 44.938975 Z"
           style="stroke-width:0.25286" />
        <path
           id="path4019"
           d="M 65.184207,994.60316 H 96.91458 v 10.99504 H 65.184207 Z"
           style="stroke-width:0.394351" />
        <path
           id="path4021"
           d="m 104.11402,994.60316 h 21.86199 v 10.99504 h -21.86199 z"
           style="stroke-width:0.327334" />
        <path
           id="path4023"
           d="m 136.70594,994.60316 h 12.07673 v 10.99504 h -12.07673 z"
           style="stroke-width:0.243287" />
        <path
           id="path4025"
           d="m 157.24359,994.60316 h 25.71132 v 10.99504 h -25.71132 z"
           style="stroke-width:0.354982" />
      </g>
    </g>
    <g
       id="g4449"
       transform="translate(444.85046,26.222928)">
      <g
         id="g4417"
         transform="matrix(1.5268554,0,0,1.5268554,-825.37392,976.02579)">
        <rect
           style="fill:none;fill-opacity:1;stroke:#000000;stroke-width:5;stroke-dasharray:none;stroke-opacity:1"
           id="rect4411"
           width="213.12567"
           height="191.11844"
           x="570.62347"
           y="152.79675"
           ry="3.0517579e-06" />
        <ellipse
           style="fill:none;fill-opacity:1;stroke:#000000;stroke-width:5;stroke-dasharray:none;stroke-opacity:1"
           id="ellipse4413"
           cx="663.65924"
           cy="220.11247"
           rx="27.579336"
           ry="25.743504" />
        <path
           style="fill:none;fill-opacity:1;stroke:#000000;stroke-width:4.99999;stroke-dasharray:none;stroke-opacity:1"
           d="m 570.62345,343.91518 69.37653,-66.29871 25.34267,31.9809 67.50018,-68.13625 50.90631,63.7099"
           id="path4415" />
      </g>
      <g
         id="g4447"
         transform="matrix(2.4106023,0,0,1,-65.916696,579.21006)">
        <path
           id="path4419"
           d="M 44.938975,951.76465 H 62.27779 v 10.99508 H 44.938975 Z"
           style="stroke-width:0.291511" />
        <path
           id="path4421"
           d="m 71.846383,951.76465 h 42.172007 v 10.99508 H 71.846383 Z"
           style="stroke-width:0.454629" />
        <path
           id="path4423"
           d="m 123.58698,951.76465 h 15.6271 v 10.99508 h -15.6271 z"
           style="stroke-width:0.276748" />
        <path
           id="path4425"
           d="m 148.78267,951.76465 h 34.17224 v 10.99508 h -34.17224 z"
           style="stroke-width:0.409243" />
        <path
           id="path4427"
           d="m 44.938975,972.06846 h 13.045788 v 10.99508 H 44.938975 Z"
           style="stroke-width:0.25286" />
        <path
           id="path4429"
           d="M 65.184207,972.06846 H 96.91458 v 10.99508 H 65.184207 Z"
           style="stroke-width:0.394351" />
        <path
           id="path4431"
           d="m 104.11402,972.06846 h 11.75789 v 10.99508 h -11.75789 z"
           style="stroke-width:0.240055" />
        <path
           id="path4433"
           d="m 131.40053,972.06846 h 17.38214 v 10.99508 h -17.38214 z"
           style="stroke-width:0.291874" />
        <path
           id="path4435"
           d="m 157.24359,972.06846 h 25.71132 v 10.99508 h -25.71132 z"
           style="stroke-width:0.354982" />
        <path
           id="path4437"
           d="m 44.938975,994.60316 h 13.045788 v 10.99504 H 44.938975 Z"
           style="stroke-width:0.25286" />
        <path
           id="path4439"
           d="M 65.184207,994.60316 H 96.91458 v 10.99504 H 65.184207 Z"
           style="stroke-width:0.394351" />
        <path
           id="path4441"
           d="m 104.11402,994.60316 h 21.86199 v 10.99504 h -21.86199 z"
           style="stroke-width:0.327334" />
        <path
           id="path4443"
           d="m 136.70594,994.60316 h 12.07673 v 10.99504 h -12.07673 z"
           style="stroke-width:0.243287" />
        <path
           id="path4445"
           d="m 157.24359,994.60316 h 25.71132 v 10.99504 h -25.71132 z"
           style="stroke-width:0.354982" />
      </g>
    </g>
    <g
       id="g4611"
       transform="translate(821.35879,27.245189)">
      <g
         id="g4579"
         transform="matrix(1.5268554,0,0,1.5268554,-825.37392,976.02579)">
        <rect
           style="fill:none;fill-opacity:1;stroke:#000000;stroke-width:5;stroke-dasharray:none;stroke-opacity:1"
           id="rect4573"
           width="213.12567"
           height="191.11844"
           x="570.62347"
           y="152.79675"
           ry="3.0517579e-06" />
        <ellipse
           style="fill:none;fill-opacity:1;stroke:#000000;stroke-width:5;stroke-dasharray:none;stroke-opacity:1"
           id="ellipse4575"
           cx="663.65924"
           cy="220.11247"
           rx="27.579336"
           ry="25.743504" />
        <path
           style="fill:none;fill-opacity:1;stroke:#000000;stroke-width:4.99999;stroke-dasharray:none;stroke-opacity:1"
           d="m 570.62345,343.91518 69.37653,-66.29871 25.34267,31.9809 67.50018,-68.13625 50.90631,63.7099"
           id="path4577" />
      </g>
      <g
         id="g4609"
         transform="matrix(2.4106023,0,0,1,-65.916696,579.21006)">
        <path
           id="path4581"
           d="M 44.938975,951.76465 H 62.27779 v 10.99508 H 44.938975 Z"
           style="stroke-width:0.291511" />
        <path
           id="path4583"
           d="m 71.846383,951.76465 h 42.172007 v 10.99508 H 71.846383 Z"
           style="stroke-width:0.454629" />
        <path
           id="path4585"
           d="m 123.58698,951.76465 h 15.6271 v 10.99508 h -15.6271 z"
           style="stroke-width:0.276748" />
        <path
           id="path4587"
           d="m 148.78267,951.76465 h 34.17224 v 10.99508 h -34.17224 z"
           style="stroke-width:0.409243" />
        <path
           id="path4589"
           d="m 44.938975,972.06846 h 13.045788 v 10.99508 H 44.938975 Z"
           style="stroke-width:0.25286" />
        <path
           id="path4591"
           d="M 65.184207,972.06846 H 96.91458 v 10.99508 H 65.184207 Z"
           style="stroke-width:0.394351" />
        <path
           id="path4593"
           d="m 104.11402,972.06846 h 11.75789 v 10.99508 h -11.75789 z"
           style="stroke-width:0.240055" />
        <path
           id="path4595"
           d="m 131.40053,972.06846 h 17.38214 v 10.99508 h -17.38214 z"
           style="stroke-width:0.291874" />
        <path
           id="path4597"
           d="m 157.24359,972.06846 h 25.71132 v 10.99508 h -25.71132 z"
           style="stroke-width:0.354982" />
        <path
           id="path4599"
           d="m 44.938975,994.60316 h 13.045788 v 10.99504 H 44.938975 Z"
           style="stroke-width:0.25286" />
        <path
           id="path4601"
           d="M 65.184207,994.60316 H 96.91458 v 10.99504 H 65.184207 Z"
           style="stroke-width:0.394351" />
        <path
           id="path4603"
           d="m 104.11402,994.60316 h 21.86199 v 10.99504 h -21.86199 z"
           style="stroke-width:0.327334" />
        <path
           id="path4605"
           d="m 136.70594,994.60316 h 12.07673 v 10.99504 h -12.07673 z"
           style="stroke-width:0.243287" />
        <path
           id="path4607"
           d="m 157.24359,994.60316 h 25.71132 v 10.99504 h -25.71132 z"
           style="stroke-width:0.354982" />
      </g>
    </g>
    <path
       id="rect9075"
       style="fill:none;stroke:#000000;stroke-width:8;stroke-dasharray:none;stroke-opacity:1"
       d="m 1220.6467,1340.714 10e-5,71.7492 35.837,-37.513 z" />
    <path
       id="path9082"
       style="fill:none;stroke:#000000;stroke-width:8;stroke-dasharray:none;stroke-opacity:1"
       d="m 64.368829,1340.714 -1e-4,71.7492 -35.837,-37.513 z" />
    <text
       xml:space="preserve"
       style="font-size:24.6944px;fill:#000000;fill-opacity:1;stroke:none;stroke-width:1;stroke-dasharray:none;stroke-opacity:1"
       x="248.53181"
       y="1954.4186"
       id="text12202"><tspan
         sodipodi:role="line"
         id="tspan12200"
         style="font-style:normal;font-variant:normal;font-weight:bold;font-stretch:normal;font-size:24.6944px;font-family:sans-serif;-inkscape-font-specification:'sans-serif, Bold';font-variant-ligatures:normal;font-variant-caps:normal;font-variant-numeric:normal;font-variant-east-asian:normal;stroke-width:1"
         x="248.53181"
         y="1954.4186">LGPD                                         Ajuda                                  Redes Sociais</tspan></text>
    <text
       xml:space="preserve"
       style="font-size:24.6944px;fill:#000000;fill-opacity:1;stroke:none;stroke-width:1;stroke-dasharray:none;stroke-opacity:1"
       x="248.53181"
       y="2004.5112"
       id="text14675"><tspan
         sodipodi:role="line"
         id="tspan14673"
         style="font-style:normal;font-variant:normal;font-weight:normal;font-stretch:normal;font-size:24.6944px;font-family:sans-serif;-inkscape-font-specification:'sans-serif, Normal';font-variant-ligatures:normal;font-variant-caps:normal;font-variant-numeric:normal;font-variant-east-asian:normal;stroke-width:1"
         x="248.53181"
         y="2004.5112">Política de privacidade          Suporte ao usuário           Instagram</tspan></text>
  </g>
</svg>
